<svg width="48" height="48" viewBox="0 0 48 48" fill="none" xmlns="http://www.w3.org/2000/svg">
<circle cx="24" cy="24" r="24" fill="#C4C4C4" fill-opacity="0.1"/>
<path d="M27.0729 14H20.9375C15.3333 14 14 15.3333 14 20.9271V27.0625C14 32.6666 15.3229 34 20.9271 34H27.0625C32.6667 34 34 32.6771 34 27.0729V20.9375C34 15.3333 32.6771 14 27.0729 14ZM30.1458 28.2708H28.6875C28.1354 28.2708 27.9688 27.8229 26.9792 26.8333C26.1146 26 25.75 25.8958 25.5312 25.8958C25.2292 25.8958 25.1458 25.9791 25.1458 26.3958V27.7083C25.1458 28.0625 25.0312 28.2708 24.1042 28.2708C23.2046 28.2104 22.3322 27.9371 21.5589 27.4735C20.7856 27.0098 20.1335 26.3691 19.6562 25.6041C18.5234 24.194 17.7351 22.5391 17.3542 20.7708C17.3542 20.5521 17.4375 20.3541 17.8542 20.3541H19.3125C19.6875 20.3541 19.8229 20.5208 19.9688 20.9062C20.6771 22.9896 21.8854 24.8021 22.375 24.8021C22.5625 24.8021 22.6458 24.7188 22.6458 24.25V22.1041C22.5833 21.125 22.0625 21.0416 22.0625 20.6875C22.0694 20.5941 22.1124 20.507 22.1824 20.4447C22.2524 20.3825 22.3439 20.35 22.4375 20.3541H24.7292C25.0417 20.3541 25.1458 20.5104 25.1458 20.8854V23.7812C25.1458 24.0938 25.2812 24.1979 25.375 24.1979C25.5625 24.1979 25.7083 24.0938 26.0521 23.75C26.7907 22.8492 27.3943 21.8456 27.8438 20.7708C27.8896 20.6415 27.9766 20.5307 28.0913 20.4555C28.2061 20.3803 28.3423 20.3446 28.4792 20.3541H29.9375C30.375 20.3541 30.4688 20.5729 30.375 20.8854C29.8444 22.0737 29.1878 23.2017 28.4167 24.25C28.2604 24.4896 28.1979 24.6146 28.4167 24.8958C28.5625 25.1146 29.0729 25.5416 29.4167 25.9479C29.9167 26.4466 30.3318 27.0237 30.6458 27.6562C30.7708 28.0625 30.5625 28.2708 30.1458 28.2708Z" fill="white"/>
</svg>
