<svg width="64" height="64" viewBox="0 0 64 64" fill="none" xmlns="http://www.w3.org/2000/svg">
<path d="M50.3333 32H31.6667V13.3333C31.6667 11.7333 30.6 10.6666 29 10.6666C15.6667 10.6666 5 21.3333 5 34.6666C5 48 15.6667 58.6666 29 58.6666C42.3333 58.6666 53 48 53 34.6666C53 33.0666 51.9333 32 50.3333 32ZM31.6667 53.0666C21.5333 54.6666 11.9333 47.4666 10.6 37.3333C9 27.2 16.2 17.6 26.3333 16.2666V34.6666C26.3333 36.2666 27.4 37.3333 29 37.3333H47.4C46.3333 45.6 39.9333 52 31.6667 53.0666ZM39.6667 5.33331C38.0667 5.33331 37 6.39998 37 7.99998V24C37 25.6 38.0667 26.6666 39.6667 26.6666H55.6667C57.2667 26.6666 58.3333 25.6 58.3333 24C58.3333 13.6 50.0667 5.33331 39.6667 5.33331ZM42.3333 21.3333V10.9333C47.6667 12 51.6667 16 52.7333 21.3333H42.3333Z" fill="#AC3DF0"/>
</svg>
