<svg width="64" height="64" viewBox="0 0 64 64" fill="none" xmlns="http://www.w3.org/2000/svg">
<path d="M30.6667 53.3333H14.6667C13.9594 53.3333 13.2811 53.0524 12.7811 52.5523C12.281 52.0522 12 51.3739 12 50.6667V13.3333C12 12.6261 12.281 11.9478 12.7811 11.4477C13.2811 10.9476 13.9594 10.6667 14.6667 10.6667H28V18.6667C28 20.7884 28.8429 22.8232 30.3431 24.3235C31.8434 25.8238 33.8783 26.6667 36 26.6667H44V40C44 40.7073 44.281 41.3855 44.781 41.8856C45.2811 42.3857 45.9594 42.6667 46.6667 42.6667C47.3739 42.6667 48.0522 42.3857 48.5523 41.8856C49.0524 41.3855 49.3333 40.7073 49.3333 40V24C49.3333 24 49.3333 24 49.3333 23.84C49.3056 23.595 49.2519 23.3537 49.1733 23.12V22.88C49.0451 22.6058 48.8741 22.3538 48.6667 22.1333L32.6667 6.13334C32.4462 5.92592 32.1942 5.75489 31.92 5.62668C31.8318 5.61124 31.7416 5.61124 31.6533 5.62668C31.394 5.48802 31.1154 5.38914 30.8267 5.33334H14.6667C12.5449 5.33334 10.5101 6.1762 9.00981 7.67649C7.50952 9.17678 6.66667 11.2116 6.66667 13.3333V50.6667C6.66667 52.7884 7.50952 54.8232 9.00981 56.3235C10.5101 57.8238 12.5449 58.6667 14.6667 58.6667H30.6667C31.3739 58.6667 32.0522 58.3857 32.5523 57.8856C33.0524 57.3855 33.3333 56.7073 33.3333 56C33.3333 55.2928 33.0524 54.6145 32.5523 54.1144C32.0522 53.6143 31.3739 53.3333 30.6667 53.3333ZM33.3333 14.4267L40.24 21.3333H36C35.2928 21.3333 34.6145 21.0524 34.1144 20.5523C33.6143 20.0522 33.3333 19.3739 33.3333 18.6667V14.4267ZM20 37.3333H36C36.7072 37.3333 37.3855 37.0524 37.8856 36.5523C38.3857 36.0522 38.6667 35.3739 38.6667 34.6667C38.6667 33.9594 38.3857 33.2812 37.8856 32.7811C37.3855 32.281 36.7072 32 36 32H20C19.2928 32 18.6145 32.281 18.1144 32.7811C17.6143 33.2812 17.3333 33.9594 17.3333 34.6667C17.3333 35.3739 17.6143 36.0522 18.1144 36.5523C18.6145 37.0524 19.2928 37.3333 20 37.3333ZM30.6667 42.6667H20C19.2928 42.6667 18.6145 42.9476 18.1144 43.4477C17.6143 43.9478 17.3333 44.6261 17.3333 45.3333C17.3333 46.0406 17.6143 46.7189 18.1144 47.219C18.6145 47.7191 19.2928 48 20 48H30.6667C31.3739 48 32.0522 47.7191 32.5523 47.219C33.0524 46.7189 33.3333 46.0406 33.3333 45.3333C33.3333 44.6261 33.0524 43.9478 32.5523 43.4477C32.0522 42.9476 31.3739 42.6667 30.6667 42.6667ZM20 26.6667H22.6667C23.3739 26.6667 24.0522 26.3857 24.5523 25.8856C25.0524 25.3855 25.3333 24.7073 25.3333 24C25.3333 23.2928 25.0524 22.6145 24.5523 22.1144C24.0522 21.6143 23.3739 21.3333 22.6667 21.3333H20C19.2928 21.3333 18.6145 21.6143 18.1144 22.1144C17.6143 22.6145 17.3333 23.2928 17.3333 24C17.3333 24.7073 17.6143 25.3855 18.1144 25.8856C18.6145 26.3857 19.2928 26.6667 20 26.6667ZM56.56 43.44C56.3121 43.1901 56.0172 42.9917 55.6922 42.8563C55.3672 42.7209 55.0187 42.6512 54.6667 42.6512C54.3146 42.6512 53.9661 42.7209 53.6411 42.8563C53.3162 42.9917 53.0212 43.1901 52.7733 43.44L44 52.24L40.56 48.7733C40.3114 48.5247 40.0162 48.3275 39.6913 48.1929C39.3665 48.0584 39.0183 47.9891 38.6667 47.9891C38.315 47.9891 37.9669 48.0584 37.642 48.1929C37.3171 48.3275 37.022 48.5247 36.7733 48.7733C36.5247 49.022 36.3275 49.3172 36.1929 49.642C36.0583 49.9669 35.9891 50.3151 35.9891 50.6667C35.9891 51.0183 36.0583 51.3665 36.1929 51.6913C36.3275 52.0162 36.5247 52.3114 36.7733 52.56L42.1067 57.8933C42.3546 58.1433 42.6495 58.3417 42.9745 58.4771C43.2994 58.6124 43.648 58.6821 44 58.6821C44.352 58.6821 44.7006 58.6124 45.0255 58.4771C45.3505 58.3417 45.6454 58.1433 45.8933 57.8933L56.56 47.2267C56.8099 46.9788 57.0083 46.6838 57.1437 46.3589C57.2791 46.0339 57.3488 45.6854 57.3488 45.3333C57.3488 44.9813 57.2791 44.6328 57.1437 44.3078C57.0083 43.9828 56.8099 43.6879 56.56 43.44Z" fill="#1ECBE1"/>
</svg>
