<svg width="64" height="64" viewBox="0 0 64 64" fill="none" xmlns="http://www.w3.org/2000/svg">
<path d="M32 40C34.829 40 37.5421 38.8762 39.5425 36.8758C41.5429 34.8754 42.6667 32.1623 42.6667 29.3333V13.3333C42.6667 10.5043 41.5429 7.79124 39.5425 5.79085C37.5421 3.79046 34.829 2.66666 32 2.66666C29.171 2.66666 26.4579 3.79046 24.4575 5.79085C22.4571 7.79124 21.3333 10.5043 21.3333 13.3333V29.3333C21.3333 32.1623 22.4571 34.8754 24.4575 36.8758C26.4579 38.8762 29.171 40 32 40ZM26.6667 13.3333C26.6667 11.9188 27.2286 10.5623 28.2288 9.56209C29.229 8.56189 30.5855 7.99999 32 7.99999C33.4145 7.99999 34.771 8.56189 35.7712 9.56209C36.7714 10.5623 37.3333 11.9188 37.3333 13.3333V29.3333C37.3333 30.7478 36.7714 32.1044 35.7712 33.1046C34.771 34.1047 33.4145 34.6667 32 34.6667C30.5855 34.6667 29.229 34.1047 28.2288 33.1046C27.2286 32.1044 26.6667 30.7478 26.6667 29.3333V13.3333ZM53.3333 29.3333C53.3333 28.6261 53.0524 27.9478 52.5523 27.4477C52.0522 26.9476 51.3739 26.6667 50.6667 26.6667C49.9594 26.6667 49.2811 26.9476 48.781 27.4477C48.281 27.9478 48 28.6261 48 29.3333C48 33.5768 46.3143 37.6464 43.3137 40.647C40.3131 43.6476 36.2435 45.3333 32 45.3333C27.7565 45.3333 23.6869 43.6476 20.6863 40.647C17.6857 37.6464 16 33.5768 16 29.3333C16 28.6261 15.7191 27.9478 15.219 27.4477C14.7189 26.9476 14.0406 26.6667 13.3333 26.6667C12.6261 26.6667 11.9478 26.9476 11.4477 27.4477C10.9476 27.9478 10.6667 28.6261 10.6667 29.3333C10.6714 34.5261 12.5699 39.5389 16.0064 43.4319C19.4429 47.3249 24.1813 49.8309 29.3333 50.48V56H24C23.2928 56 22.6145 56.2809 22.1144 56.781C21.6143 57.2811 21.3333 57.9594 21.3333 58.6667C21.3333 59.3739 21.6143 60.0522 22.1144 60.5523C22.6145 61.0524 23.2928 61.3333 24 61.3333H40C40.7072 61.3333 41.3855 61.0524 41.8856 60.5523C42.3857 60.0522 42.6667 59.3739 42.6667 58.6667C42.6667 57.9594 42.3857 57.2811 41.8856 56.781C41.3855 56.2809 40.7072 56 40 56H34.6667V50.48C39.8187 49.8309 44.5571 47.3249 47.9936 43.4319C51.4301 39.5389 53.3286 34.5261 53.3333 29.3333Z" fill="#00C470"/>
</svg>
