<svg width="64" height="64" viewBox="0 0 64 64" fill="none" xmlns="http://www.w3.org/2000/svg">
<path d="M58.6667 45.3333H5.33332C4.62608 45.3333 3.9478 45.6143 3.4477 46.1144C2.94761 46.6145 2.66666 47.2927 2.66666 48C2.66666 48.7072 2.94761 49.3855 3.4477 49.8856C3.9478 50.3857 4.62608 50.6667 5.33332 50.6667H58.6667C59.3739 50.6667 60.0522 50.3857 60.5523 49.8856C61.0524 49.3855 61.3333 48.7072 61.3333 48C61.3333 47.2927 61.0524 46.6145 60.5523 46.1144C60.0522 45.6143 59.3739 45.3333 58.6667 45.3333ZM58.6667 56H5.33332C4.62608 56 3.9478 56.2809 3.4477 56.781C2.94761 57.2811 2.66666 57.9594 2.66666 58.6667C2.66666 59.3739 2.94761 60.0522 3.4477 60.5523C3.9478 61.0524 4.62608 61.3333 5.33332 61.3333H58.6667C59.3739 61.3333 60.0522 61.0524 60.5523 60.5523C61.0524 60.0522 61.3333 59.3739 61.3333 58.6667C61.3333 57.9594 61.0524 57.2811 60.5523 56.781C60.0522 56.2809 59.3739 56 58.6667 56ZM16 18.6667C15.4726 18.6667 14.957 18.8231 14.5185 19.1161C14.0799 19.4091 13.7381 19.8256 13.5363 20.3128C13.3345 20.8001 13.2817 21.3363 13.3846 21.8536C13.4875 22.3708 13.7414 22.846 14.1144 23.2189C14.4873 23.5919 14.9625 23.8459 15.4797 23.9487C15.997 24.0516 16.5332 23.9988 17.0205 23.797C17.5077 23.5952 17.9242 23.2534 18.2172 22.8148C18.5103 22.3763 18.6667 21.8607 18.6667 21.3333C18.6667 20.6261 18.3857 19.9478 17.8856 19.4477C17.3855 18.9476 16.7072 18.6667 16 18.6667ZM53.3333 2.66666H10.6667C8.54492 2.66666 6.51009 3.50951 5.0098 5.0098C3.50951 6.51009 2.66666 8.54492 2.66666 10.6667V32C2.66666 34.1217 3.50951 36.1566 5.0098 37.6568C6.51009 39.1571 8.54492 40 10.6667 40H53.3333C55.4551 40 57.4899 39.1571 58.9902 37.6568C60.4905 36.1566 61.3333 34.1217 61.3333 32V10.6667C61.3333 8.54492 60.4905 6.51009 58.9902 5.0098C57.4899 3.50951 55.4551 2.66666 53.3333 2.66666ZM56 32C56 32.7072 55.719 33.3855 55.2189 33.8856C54.7188 34.3857 54.0406 34.6667 53.3333 34.6667H10.6667C9.95941 34.6667 9.28114 34.3857 8.78104 33.8856C8.28094 33.3855 7.99999 32.7072 7.99999 32V10.6667C7.99999 9.95941 8.28094 9.28114 8.78104 8.78104C9.28114 8.28094 9.95941 7.99999 10.6667 7.99999H53.3333C54.0406 7.99999 54.7188 8.28094 55.2189 8.78104C55.719 9.28114 56 9.95941 56 10.6667V32ZM32 13.3333C30.4177 13.3333 28.871 13.8025 27.5554 14.6816C26.2398 15.5606 25.2145 16.81 24.609 18.2719C24.0035 19.7337 23.845 21.3422 24.1537 22.894C24.4624 24.4459 25.2243 25.8714 26.3431 26.9902C27.462 28.109 28.8874 28.8709 30.4393 29.1796C31.9911 29.4883 33.5996 29.3299 35.0615 28.7244C36.5233 28.1189 37.7727 27.0935 38.6517 25.7779C39.5308 24.4623 40 22.9156 40 21.3333C40 19.2116 39.1571 17.1768 37.6568 15.6765C36.1566 14.1762 34.1217 13.3333 32 13.3333ZM32 24C31.4726 24 30.957 23.8436 30.5185 23.5506C30.0799 23.2576 29.7381 22.8411 29.5363 22.3538C29.3345 21.8665 29.2817 21.3304 29.3846 20.8131C29.4875 20.2958 29.7414 19.8206 30.1144 19.4477C30.4873 19.0748 30.9625 18.8208 31.4797 18.7179C31.997 18.615 32.5332 18.6678 33.0205 18.8696C33.5077 19.0715 33.9242 19.4133 34.2172 19.8518C34.5103 20.2903 34.6667 20.8059 34.6667 21.3333C34.6667 22.0406 34.3857 22.7188 33.8856 23.2189C33.3855 23.719 32.7072 24 32 24ZM48 18.6667C47.4726 18.6667 46.957 18.8231 46.5185 19.1161C46.0799 19.4091 45.7381 19.8256 45.5363 20.3128C45.3345 20.8001 45.2817 21.3363 45.3846 21.8536C45.4875 22.3708 45.7414 22.846 46.1144 23.2189C46.4873 23.5919 46.9625 23.8459 47.4797 23.9487C47.997 24.0516 48.5332 23.9988 49.0205 23.797C49.5077 23.5952 49.9242 23.2534 50.2172 22.8148C50.5103 22.3763 50.6667 21.8607 50.6667 21.3333C50.6667 20.6261 50.3857 19.9478 49.8856 19.4477C49.3855 18.9476 48.7072 18.6667 48 18.6667Z" fill="#10ABED" fill-opacity="0.91"/>
</svg>
