<svg width="60" height="60" viewBox="0 0 60 60" fill="none" xmlns="http://www.w3.org/2000/svg">
<circle cx="30" cy="30" r="30" fill="white"/>
<g clip-path="url(#clip0_1_218)">
<path fill-rule="evenodd" clip-rule="evenodd" d="M21.5 22H38.5C38.8978 22 39.2794 22.158 39.5607 22.4393C39.842 22.7206 40 23.1022 40 23.5C40 23.8978 39.842 24.2794 39.5607 24.5607C39.2794 24.842 38.8978 25 38.5 25H21.5C21.1022 25 20.7206 24.842 20.4393 24.5607C20.158 24.2794 20 23.8978 20 23.5C20 23.1022 20.158 22.7206 20.4393 22.4393C20.7206 22.158 21.1022 22 21.5 22ZM21.5 29H38.5C38.8978 29 39.2794 29.158 39.5607 29.4393C39.842 29.7206 40 30.1022 40 30.5C40 30.8978 39.842 31.2794 39.5607 31.5607C39.2794 31.842 38.8978 32 38.5 32H21.5C21.1022 32 20.7206 31.842 20.4393 31.5607C20.158 31.2794 20 30.8978 20 30.5C20 30.1022 20.158 29.7206 20.4393 29.4393C20.7206 29.158 21.1022 29 21.5 29ZM21.5 36H38.5C38.8978 36 39.2794 36.158 39.5607 36.4393C39.842 36.7206 40 37.1022 40 37.5C40 37.8978 39.842 38.2794 39.5607 38.5607C39.2794 38.842 38.8978 39 38.5 39H21.5C21.1022 39 20.7206 38.842 20.4393 38.5607C20.158 38.2794 20 37.8978 20 37.5C20 37.1022 20.158 36.7206 20.4393 36.4393C20.7206 36.158 21.1022 36 21.5 36Z" fill="black"/>
</g>
<defs>
<clipPath id="clip0_1_218">
<rect width="20" height="17" fill="white" transform="translate(20 22)"/>
</clipPath>
</defs>
</svg>
